<svg width="960" height="1100" viewBox="0 0 960 1100" fill="none" xmlns="http://www.w3.org/2000/svg">
  <rect width="960" height="1100" fill="#1E1F22"/>
  <rect x="0" y="0" width="72" height="1100" fill="#111214"/>
  <circle cx="36" cy="40" r="20" fill="#5865F2"/>
  <rect x="108" y="48" width="250" height="26" rx="13" fill="#2B2D31"/>
  <rect x="108" y="92" width="744" height="930" rx="24" fill="#313338"/>
  <rect x="132" y="118" width="696" height="600" rx="20" fill="#2B2D31"/>
  <rect x="132" y="118" width="8" height="600" rx="4" fill="#F0B232"/>
  <text x="162" y="164" fill="#FFFFFF" font-family="Arial, sans-serif" font-size="28" font-weight="700">Snap Control Panel</text>
  <text x="162" y="196" fill="#B5BAC1" font-family="Arial, sans-serif" font-size="18">Discord admin panel preview for <t>/snappanel</t></text>

  <text x="162" y="244" fill="#FFFFFF" font-family="Arial, sans-serif" font-size="18" font-weight="700">Automation</text>
  <text x="392" y="244" fill="#FFFFFF" font-family="Arial, sans-serif" font-size="18" font-weight="700">Timezone</text>
  <text x="612" y="244" fill="#FFFFFF" font-family="Arial, sans-serif" font-size="18" font-weight="700">Drops / Day</text>
  <text x="162" y="272" fill="#DBDEE1" font-family="Arial, sans-serif" font-size="18">Enabled</text>
  <text x="392" y="272" fill="#DBDEE1" font-family="Arial, sans-serif" font-size="18">America/New_York</text>
  <text x="612" y="272" fill="#DBDEE1" font-family="Arial, sans-serif" font-size="18">3</text>

  <text x="162" y="332" fill="#FFFFFF" font-family="Arial, sans-serif" font-size="18" font-weight="700">Daily Window</text>
  <text x="392" y="332" fill="#FFFFFF" font-family="Arial, sans-serif" font-size="18" font-weight="700">Drop Duration</text>
  <text x="612" y="332" fill="#FFFFFF" font-family="Arial, sans-serif" font-size="18" font-weight="700">Reminders</text>
  <text x="162" y="360" fill="#DBDEE1" font-family="Arial, sans-serif" font-size="18">9:00-23:59</text>
  <text x="392" y="360" fill="#DBDEE1" font-family="Arial, sans-serif" font-size="18">2 minute(s)</text>
  <text x="612" y="360" fill="#DBDEE1" font-family="Arial, sans-serif" font-size="18">1</text>

  <text x="162" y="428" fill="#FFFFFF" font-family="Arial, sans-serif" font-size="18" font-weight="700">Next Drop</text>
  <text x="162" y="458" fill="#DBDEE1" font-family="Arial, sans-serif" font-size="18">Tuesday, April 14, 2026 7:45 PM</text>

  <text x="162" y="520" fill="#FFFFFF" font-family="Arial, sans-serif" font-size="18" font-weight="700">Active Drop</text>
  <text x="162" y="550" fill="#DBDEE1" font-family="Arial, sans-serif" font-size="18">#daily-snap closes in 1 minute from now</text>

  <text x="162" y="612" fill="#FFFFFF" font-family="Arial, sans-serif" font-size="18" font-weight="700">Server Totals</text>
  <text x="162" y="642" fill="#DBDEE1" font-family="Arial, sans-serif" font-size="18">Tracked: 42 | On-time: 318 | Late: 76 | Missed: 49</text>

  <rect x="132" y="746" width="696" height="246" rx="20" fill="#2B2D31"/>
  <text x="162" y="792" fill="#FFFFFF" font-family="Arial, sans-serif" font-size="24" font-weight="700">Buttons</text>
  <text x="162" y="822" fill="#B5BAC1" font-family="Arial, sans-serif" font-size="18">Two action rows sit under the embed in the ephemeral panel message.</text>

  <rect x="162" y="854" width="116" height="42" rx="10" fill="#4E5058"/>
  <text x="196" y="881" fill="#FFFFFF" font-family="Arial, sans-serif" font-size="18" font-weight="700">Refresh</text>
  <rect x="294" y="854" width="100" height="42" rx="10" fill="#5865F2"/>
  <text x="327" y="881" fill="#FFFFFF" font-family="Arial, sans-serif" font-size="18" font-weight="700">Start</text>
  <rect x="410" y="854" width="100" height="42" rx="10" fill="#4E5058"/>
  <text x="443" y="881" fill="#FFFFFF" font-family="Arial, sans-serif" font-size="18" font-weight="700">Close</text>
  <rect x="526" y="854" width="132" height="42" rx="10" fill="#4E5058"/>
  <text x="549" y="881" fill="#FFFFFF" font-family="Arial, sans-serif" font-size="18" font-weight="700">Extend +5m</text>
  <rect x="674" y="854" width="108" height="42" rx="10" fill="#4E5058"/>
  <text x="703" y="881" fill="#FFFFFF" font-family="Arial, sans-serif" font-size="18" font-weight="700">Reopen</text>

  <rect x="162" y="916" width="100" height="42" rx="10" fill="#4E5058"/>
  <text x="192" y="943" fill="#FFFFFF" font-family="Arial, sans-serif" font-size="18" font-weight="700">Reroll</text>
  <rect x="278" y="916" width="116" height="42" rx="10" fill="#5865F2"/>
  <text x="303" y="943" fill="#FFFFFF" font-family="Arial, sans-serif" font-size="18" font-weight="700">Schedule</text>
  <rect x="410" y="916" width="100" height="42" rx="10" fill="#4E5058"/>
  <text x="442" y="943" fill="#FFFFFF" font-family="Arial, sans-serif" font-size="18" font-weight="700">Recap</text>
  <rect x="526" y="916" width="100" height="42" rx="10" fill="#4E5058"/>
  <text x="555" y="943" fill="#FFFFFF" font-family="Arial, sans-serif" font-size="18" font-weight="700">Export</text>
  <rect x="642" y="916" width="100" height="42" rx="10" fill="#DA373C"/>
  <text x="673" y="943" fill="#FFFFFF" font-family="Arial, sans-serif" font-size="18" font-weight="700">Reset</text>

  <rect x="132" y="48" width="148" height="34" rx="17" fill="#5865F2"/>
  <text x="163" y="71" fill="#FFFFFF" font-family="Arial, sans-serif" font-size="16" font-weight="700">Ephemeral Reply</text>
</svg>
